<mxfile host="65bd71144e">
    <diagram id="codeviz-diagram" name="System Diagram">
        <mxGraphModel dx="1533" dy="1113" grid="1" gridSize="10" guides="1" tooltips="1" connect="1" arrows="1" fold="1" page="1" pageScale="1" pageWidth="1169" pageHeight="827" math="0" shadow="0">
            <root>
                <mxCell id="0"/>
                <mxCell id="1" parent="0"/>
                <mxCell id="261" value="" style="html=1;whiteSpace=wrap;container=1;fillColor=#dae8fc;strokeColor=#6c8ebf;dashed=1;fillOpacity=20;strokeWidth=2;containerType=none;recursiveResize=0;movable=1;resizable=1;autosize=0;dropTarget=0" parent="1" vertex="1">
                    <mxGeometry x="343.2104416394317" y="967" width="288.15783122957384" height="244.07891561478687" as="geometry"/>
                </mxCell>
                <mxCell id="270" value="Data Storage&lt;br&gt;Browser localStorage, etc." style="rounded=1;whiteSpace=wrap;html=1;fillColor=#f5f5f5" parent="261" vertex="1">
                    <mxGeometry x="40" y="120" width="168.1578312295738" height="84.0789156147869" as="geometry"/>
                </mxCell>
                <mxCell id="261_label" value="External Systems" style="edgeLabel;html=1;align=center;verticalAlign=middle;resizable=0;labelBackgroundColor=white;spacing=5" parent="1" vertex="1">
                    <mxGeometry x="351.2104416394317" y="975" width="212.15783122957384" height="24" as="geometry"/>
                </mxCell>
                <mxCell id="262" value="" style="html=1;whiteSpace=wrap;container=1;fillColor=#dae8fc;strokeColor=#6c8ebf;dashed=1;fillOpacity=20;strokeWidth=2;containerType=none;recursiveResize=0;movable=1;resizable=1;autosize=0;dropTarget=0" parent="1" vertex="1">
                    <mxGeometry x="22" y="252" width="752.4734936887214" height="604.0789156147869" as="geometry"/>
                </mxCell>
                <mxCell id="263" value="UI Components&lt;br&gt;TypeScript" style="rounded=1;whiteSpace=wrap;html=1;fillColor=#f5f5f5" parent="262" vertex="1">
                    <mxGeometry x="448.2630520492896" y="120" width="168.1578312295738" height="84.0789156147869" as="geometry"/>
                </mxCell>
                <mxCell id="264" value="Cart Management&lt;br&gt;TypeScript" style="rounded=1;whiteSpace=wrap;html=1;fillColor=#f5f5f5" parent="262" vertex="1">
                    <mxGeometry x="272.15783122957373" y="295" width="168.1578312295738" height="84.0789156147869" as="geometry"/>
                </mxCell>
                <mxCell id="265" value="Event Management&lt;br&gt;TypeScript" style="rounded=1;whiteSpace=wrap;html=1;fillColor=#f5f5f5" parent="262" vertex="1">
                    <mxGeometry x="163.0526104098579" y="480" width="168.1578312295738" height="84.0789156147869" as="geometry"/>
                </mxCell>
                <mxCell id="266" value="Storage Service&lt;br&gt;TypeScript" style="rounded=1;whiteSpace=wrap;html=1;fillColor=#f5f5f5" parent="262" vertex="1">
                    <mxGeometry x="361.2104416394317" y="480" width="168.1578312295738" height="84.0789156147869" as="geometry"/>
                </mxCell>
                <mxCell id="267" value="Notification Service&lt;br&gt;TypeScript" style="rounded=1;whiteSpace=wrap;html=1;fillColor=#f5f5f5" parent="262" vertex="1">
                    <mxGeometry x="504.3156624591476" y="305" width="168.1578312295738" height="84.0789156147869" as="geometry"/>
                </mxCell>
                <mxCell id="268" value="Product Repository&lt;br&gt;TypeScript" style="rounded=1;whiteSpace=wrap;html=1;fillColor=#f5f5f5" parent="262" vertex="1">
                    <mxGeometry x="40" y="275" width="168.1578312295738" height="84.0789156147869" as="geometry"/>
                </mxCell>
                <mxCell id="262_label" value="E-commerce Web Application&lt;br&gt;TypeScript" style="edgeLabel;html=1;align=center;verticalAlign=middle;resizable=0;labelBackgroundColor=white;spacing=5" parent="1" vertex="1">
                    <mxGeometry x="30" y="260" width="676.4734936887214" height="24" as="geometry"/>
                </mxCell>
                <mxCell id="269" value="User&lt;br&gt;External Actor" style="rounded=1;whiteSpace=wrap;html=1;fillColor=#f5f5f5" parent="1" vertex="1">
                    <mxGeometry x="460.2630520492896" y="12" width="168.1578312295738" height="84.0789156147869" as="geometry"/>
                </mxCell>
                <mxCell id="edge-333" style="edgeStyle=orthogonalEdgeStyle;rounded=1;orthogonalLoop=1;jettySize=auto;html=1;strokeColor=#808080;strokeWidth=2;jumpStyle=arc;jumpSize=10;spacing=15;labelBackgroundColor=white;labelBorderColor=none" parent="1" source="269" target="263" edge="1">
                    <mxGeometry relative="1" as="geometry"/>
                </mxCell>
                <mxCell id="edge-333_label" value="interacts with" style="edgeLabel;html=1;align=center;verticalAlign=middle;resizable=0;points=[];" parent="edge-333" vertex="1" connectable="0">
                    <mxGeometry x="-0.2" y="10" relative="1" as="geometry">
                        <mxPoint as="offset"/>
                    </mxGeometry>
                </mxCell>
                <mxCell id="edge-334" style="edgeStyle=orthogonalEdgeStyle;rounded=1;orthogonalLoop=1;jettySize=auto;html=1;strokeColor=#808080;strokeWidth=2;jumpStyle=arc;jumpSize=10;spacing=15;labelBackgroundColor=white;labelBorderColor=none" parent="1" source="263" target="264" edge="1">
                    <mxGeometry relative="1" as="geometry"/>
                </mxCell>
                <mxCell id="edge-334_label" value="uses" style="edgeLabel;html=1;align=center;verticalAlign=middle;resizable=0;points=[];" parent="edge-334" vertex="1" connectable="0">
                    <mxGeometry x="-0.2" y="10" relative="1" as="geometry">
                        <mxPoint as="offset"/>
                    </mxGeometry>
                </mxCell>
                <mxCell id="edge-335" style="edgeStyle=orthogonalEdgeStyle;rounded=1;orthogonalLoop=1;jettySize=auto;html=1;strokeColor=#808080;strokeWidth=2;jumpStyle=arc;jumpSize=10;spacing=15;labelBackgroundColor=white;labelBorderColor=none" parent="1" source="263" target="265" edge="1">
                    <mxGeometry relative="1" as="geometry"/>
                </mxCell>
                <mxCell id="edge-335_label" value="uses" style="edgeLabel;html=1;align=center;verticalAlign=middle;resizable=0;points=[];" parent="edge-335" vertex="1" connectable="0">
                    <mxGeometry x="-0.2" y="10" relative="1" as="geometry">
                        <mxPoint as="offset"/>
                    </mxGeometry>
                </mxCell>
                <mxCell id="edge-338" style="edgeStyle=orthogonalEdgeStyle;rounded=1;orthogonalLoop=1;jettySize=auto;html=1;strokeColor=#808080;strokeWidth=2;jumpStyle=arc;jumpSize=10;spacing=15;labelBackgroundColor=white;labelBorderColor=none" parent="1" source="263" target="266" edge="1">
                    <mxGeometry relative="1" as="geometry"/>
                </mxCell>
                <mxCell id="edge-338_label" value="initiates checkout with" style="edgeLabel;html=1;align=center;verticalAlign=middle;resizable=0;points=[];" parent="edge-338" vertex="1" connectable="0">
                    <mxGeometry x="-0.2" y="10" relative="1" as="geometry">
                        <mxPoint as="offset"/>
                    </mxGeometry>
                </mxCell>
                <mxCell id="edge-337" style="edgeStyle=orthogonalEdgeStyle;rounded=1;orthogonalLoop=1;jettySize=auto;html=1;strokeColor=#808080;strokeWidth=2;jumpStyle=arc;jumpSize=10;spacing=15;labelBackgroundColor=white;labelBorderColor=none" parent="1" source="263" target="267" edge="1">
                    <mxGeometry relative="1" as="geometry"/>
                </mxCell>
                <mxCell id="edge-337_label" value="shows notifications via" style="edgeLabel;html=1;align=center;verticalAlign=middle;resizable=0;points=[];" parent="edge-337" vertex="1" connectable="0">
                    <mxGeometry x="-0.2" y="10" relative="1" as="geometry">
                        <mxPoint as="offset"/>
                    </mxGeometry>
                </mxCell>
                <mxCell id="edge-336" style="edgeStyle=orthogonalEdgeStyle;rounded=1;orthogonalLoop=1;jettySize=auto;html=1;strokeColor=#808080;strokeWidth=2;jumpStyle=arc;jumpSize=10;spacing=15;labelBackgroundColor=white;labelBorderColor=none" parent="1" source="263" target="268" edge="1">
                    <mxGeometry relative="1" as="geometry"/>
                </mxCell>
                <mxCell id="edge-336_label" value="displays data from" style="edgeLabel;html=1;align=center;verticalAlign=middle;resizable=0;points=[];" parent="edge-336" vertex="1" connectable="0">
                    <mxGeometry x="-0.2" y="10" relative="1" as="geometry">
                        <mxPoint as="offset"/>
                    </mxGeometry>
                </mxCell>
                <mxCell id="edge-340" style="edgeStyle=orthogonalEdgeStyle;rounded=1;orthogonalLoop=1;jettySize=auto;html=1;strokeColor=#808080;strokeWidth=2;jumpStyle=arc;jumpSize=10;spacing=15;labelBackgroundColor=white;labelBorderColor=none" parent="1" source="264" target="265" edge="1">
                    <mxGeometry relative="1" as="geometry"/>
                </mxCell>
                <mxCell id="edge-340_label" value="publishes/subscribes via" style="edgeLabel;html=1;align=center;verticalAlign=middle;resizable=0;points=[];" parent="edge-340" vertex="1" connectable="0">
                    <mxGeometry x="-0.2" y="10" relative="1" as="geometry">
                        <mxPoint as="offset"/>
                    </mxGeometry>
                </mxCell>
                <mxCell id="edge-339" style="edgeStyle=orthogonalEdgeStyle;rounded=1;orthogonalLoop=1;jettySize=auto;html=1;strokeColor=#808080;strokeWidth=2;jumpStyle=arc;jumpSize=10;spacing=15;labelBackgroundColor=white;labelBorderColor=none" parent="1" source="264" target="266" edge="1">
                    <mxGeometry relative="1" as="geometry"/>
                </mxCell>
                <mxCell id="edge-339_label" value="persists cart using" style="edgeLabel;html=1;align=center;verticalAlign=middle;resizable=0;points=[];" parent="edge-339" vertex="1" connectable="0">
                    <mxGeometry x="-0.2" y="10" relative="1" as="geometry">
                        <mxPoint as="offset"/>
                    </mxGeometry>
                </mxCell>
                <mxCell id="edge-341" style="edgeStyle=orthogonalEdgeStyle;rounded=1;orthogonalLoop=1;jettySize=auto;html=1;strokeColor=#808080;strokeWidth=2;jumpStyle=arc;jumpSize=10;spacing=15;labelBackgroundColor=white;labelBorderColor=none" parent="1" source="266" target="270" edge="1">
                    <mxGeometry relative="1" as="geometry"/>
                </mxCell>
                <mxCell id="edge-341_label" value="accesses" style="edgeLabel;html=1;align=center;verticalAlign=middle;resizable=0;points=[];" parent="edge-341" vertex="1" connectable="0">
                    <mxGeometry x="-0.2" y="10" relative="1" as="geometry">
                        <mxPoint as="offset"/>
                    </mxGeometry>
                </mxCell>
            </root>
        </mxGraphModel>
    </diagram>
</mxfile>